<?xml version="1.0" encoding="UTF-8"?>
<svg width="24" height="24" viewBox="0 0 24 24" fill="none" xmlns="http://www.w3.org/2000/svg">
  <path d="M16.365 13.205c.03 3.247 2.85 4.33 2.88 4.343-.024.077-.45 1.546-1.486 3.062-.894 1.307-1.82 2.61-3.276 2.635-1.43.025-1.89-.85-3.52-.85-1.631 0-2.14.825-3.495.875-1.405.05-2.474-1.41-3.374-2.716-1.84-2.655-3.241-7.5-1.356-10.777.94-1.63 2.616-2.664 4.447-2.69 1.393-.025 2.709.925 3.52.925.81 0 2.42-1.14 4.085-.97.698.029 2.662.282 3.93 2.118-.102.064-2.335 1.358-2.334 4.025zM13.63 3.61c.743-.9 1.23-2.13 1.095-3.36-1.06.043-2.34.71-3.1 1.61-.682.78-1.28 2.04-1.12 3.24 1.18.09 2.383-.6 3.125-1.49z" fill="currentColor"/>
</svg>
